<?xml version="1.0" standalone="no"?><!DOCTYPE svg PUBLIC "-//W3C//DTD SVG 1.1//EN" "http://www.w3.org/Graphics/SVG/1.1/DTD/svg11.dtd"><svg t="1587974655053" class="icon" viewBox="0 0 1024 1024" version="1.1" xmlns="http://www.w3.org/2000/svg" p-id="4900" width="32" height="32" xmlns:xlink="http://www.w3.org/1999/xlink"><defs><style type="text/css"></style></defs><path d="M348.112 747.232a38.96 38.96 0 1 0 0 77.92 38.96 38.96 0 0 0 0-77.92z m345.04 0a38.96 38.96 0 1 0 0 77.92 38.96 38.96 0 0 0 0-77.92z m-423.776-555.2L192 192.288a16 16 0 0 0-15.952 16.048l0.048 16a16 16 0 0 0 16.048 15.952l48.544-0.144 50.864 472.32a16 16 0 0 0 15.904 14.272h408.576a16 16 0 0 0 16-16v-16a16 16 0 0 0-16-16h-379.84l-3.808-35.504 401.152 0.016a16 16 0 0 0 15.472-11.92l82.144-310.944a16 16 0 0 0-15.472-20.096H295.44l-10.112-93.936a16 16 0 0 0-14.08-14.192l-1.872-0.096z m31.248 156.24h473.504l-65.232 246.96-381.68-0.016-26.592-246.944z" p-id="4901" fill="#d4237a"></path></svg>